<?xml version="1.0" standalone="no"?>
<!DOCTYPE svg PUBLIC "-//W3C//DTD SVG 1.1//EN" "http://www.w3.org/Graphics/SVG/1.1/DTD/svg11.dtd" >
<svg xmlns="http://www.w3.org/2000/svg">
<metadata></metadata>
<defs>
<font id="rondaregular" horiz-adv-x="1083" >
<font-face units-per-em="2048" ascent="1638" descent="-410" />
<missing-glyph horiz-adv-x="593" />
<glyph unicode="&#xd;" horiz-adv-x="593" />
<glyph unicode=" "  horiz-adv-x="593" />
<glyph unicode="&#x09;" horiz-adv-x="593" />
<glyph unicode="&#xa0;" horiz-adv-x="593" />
<glyph unicode="!" horiz-adv-x="430" d="M88 98q0 53 39 96.5t92 43.5q49 0 86 -37t37 -88q0 -57 -37 -96.5t-96 -39.5q-51 0 -86 35t-35 86zM121 389v1086h192v-1086h-192z" />
<glyph unicode="&#x22;" horiz-adv-x="706" d="M59 1350q0 55 37 98t92 43q53 0 91 -44t38 -99q4 -35 -16 -64l-127 -221h-94q41 59 65.5 96t24.5 41q0 10 -55.5 51t-55.5 99zM389 1350q0 55 37 98t92 43q53 0 91 -44t38 -99q4 -35 -16 -64l-127 -221h-94q41 59 65.5 96t24.5 41q0 10 -55.5 51t-55.5 99z" />
<glyph unicode="#" horiz-adv-x="1050" d="M0 442l37 148h205l71 295h-207l37 147h207l111 443h151l-108 -443h201l110 443h152l-109 -443h193l-37 -147h-193l-73 -295h198l-37 -148h-198l-111 -442h-151l110 442h-203l-110 -442h-152l111 442h-205zM393 590h203l74 295h-203z" />
<glyph unicode="$" horiz-adv-x="1019" d="M74 334l168 72q8 -41 57 -113q27 -37 45 -62l168 504l-61 19q-158 61 -230 123q-100 88 -100 227q0 170 102.5 284.5t272.5 114.5q70 0 129 -23.5t104 -72.5l64 209l141 -43l-238 -733q121 -51 185.5 -158t64.5 -240q0 -16 -1 -36.5t-7 -55.5q-27 -154 -149.5 -261 t-278.5 -107q-49 0 -96 12l-70 -223l-141 49l80 227q-166 103 -209 287zM299 1135q0 -66 56.5 -118t207.5 -114l105 314q-16 51 -61.5 83.5t-98.5 32.5q-80 0 -144.5 -60.5t-64.5 -137.5zM471 166l37 -2q39 0 76 12q98 35 143 96.5t45 165.5q0 80 -33.5 140.5t-103.5 87.5z " />
<glyph unicode="%" horiz-adv-x="1302" d="M74 1188q0 117 78.5 202t195.5 85h797l-823 -1475h-150l707 1272q6 12 14 27.5t6 29.5q0 20 -26.5 25.5t-34.5 5.5h-123h-56q-18 -4 -26 -23q12 -33 23.5 -63.5t11.5 -69.5q0 -133 -82 -225t-213 -92q-127 0 -213 86t-86 215zM205 1184q0 -72 50 -122t122 -50 q74 0 125 49t51 123t-50 126t-124 52q-76 0 -125 -51t-49 -127zM641 270q0 123 86 209t209 86t208 -87t85 -210t-85 -212t-210 -89q-123 0 -208 89t-85 214zM766 262q0 -68 49 -117t117 -49q72 0 119 51.5t47 124.5q0 68 -49.5 115t-116.5 47q-70 0 -118 -50t-48 -122z" />
<glyph unicode="&#x26;" horiz-adv-x="1300" d="M72 442q0 100 47 205q41 92 117 174q10 10 23 24.5t15 24.5q-33 66 -59.5 129.5t-26.5 118.5q0 147 113 264t258 117q158 0 266.5 -112.5t108.5 -270.5l-6 -74q-18 -109 -71.5 -172t-158.5 -110q-27 -12 -32 -19q-6 -6 -9 -22q0 -27 56 -90q29 -33 78 -82q27 -29 45 -45 q37 -31 57 -31q18 0 37 23q8 10 26 38l152 218l135 -91l-156 -253q-18 -27 -31.5 -50.5t-13.5 -44.5q0 -27 19 -55q10 -16 39 -47l172 -209h-230q-35 49 -59 80q-47 63 -59 67q-20 0 -90 -51q-14 -10 -84 -67q-33 -25 -81 -34t-104 -9l-84 6q-170 23 -289.5 151.5 t-119.5 298.5zM260 463q0 -125 87 -219t212 -94q63 0 135 30q88 39 88 94q0 20 -18 48q-8 10 -35 40l-235 263q-25 29 -48 49q-34 31 -57 31q-59 0 -98 -97q-31 -76 -31 -145zM365 1102q0 -76 53 -154q61 -88 133 -88q33 0 65 17q18 8 60 38q51 39 77.5 85.5t26.5 105.5 q0 90 -55 160.5t-141 70.5q-92 0 -155.5 -70.5t-63.5 -164.5z" />
<glyph unicode="'" horiz-adv-x="376" d="M59 1350q0 55 37 98t92 43q53 0 91 -44t38 -99q4 -35 -16 -64l-127 -221h-94q41 59 65.5 96t24.5 41q0 10 -55.5 51t-55.5 99z" />
<glyph unicode="(" horiz-adv-x="804" d="M88 739q0 336 193 590q201 264 524 322l-2 -164q-246 -49 -404 -285q-145 -219 -145 -481q0 -256 149 -471q158 -225 402 -277v-157q-313 51 -520 329q-197 266 -197 594z" />
<glyph unicode=")" horiz-adv-x="804" d="M0 -20q246 49 403 282q147 217 148 479q0 262 -145 476q-156 227 -406 278v156q311 -49 518 -330q199 -268 199 -592q0 -336 -193 -590q-201 -264 -524 -323v164z" />
<glyph unicode="*" horiz-adv-x="665" d="M59 1288l60 92q45 -27 71 -43q53 -31 70 -30q23 0 23 43v125h114v-125q0 -39 23 -41q8 0 45 21.5t86 55.5l55 -94l-121 -71q-18 -10 -18 -29q0 -14 14 -23l125 -69l-55 -90q-37 20 -74 43q-59 33 -69 34q-8 0 -9.5 -23.5t-1.5 -27.5v-123h-118v46t2 57v26q0 16 -5 33 q-2 6 -10 8q-2 0 -4 2q-14 0 -69 -30q-6 -4 -74 -45l-56 90l111 63q25 16 25 37l-6 17q-10 10 -62 36q-37 17 -72 35z" />
<glyph unicode="+" horiz-adv-x="1126" d="M51 676v121h459v458h115v-456h458v-123h-458v-457h-115v457h-459z" />
<glyph unicode="," horiz-adv-x="376" d="M59 109q0 55 37 98t92 43q53 0 91 -44.5t38 -99.5q2 -33 -16 -65l-127 -219h-94q41 59 65.5 96t24.5 41q0 10 -55.5 51t-55.5 99z" />
<glyph unicode="-" horiz-adv-x="591" d="M59 461v160h473v-160h-473z" />
<glyph unicode="." horiz-adv-x="372" d="M59 98q0 53 39 96.5t92 43.5q51 0 87 -38t36 -89q0 -57 -37 -96.5t-96 -39.5q-51 0 -86 35t-35 88z" />
<glyph unicode="/" horiz-adv-x="1052" d="M29 0l819 1475h176l-825 -1475h-170z" />
<glyph unicode="0" horiz-adv-x="1128" d="M45 459v563q0 203 150.5 336t357.5 133q215 0 369 -129q162 -137 161 -348v-561q0 -203 -156.5 -337t-363.5 -134t-358 133q-160 139 -160 344zM238 504q0 -150 91 -259.5t238 -109.5q143 0 234.5 113.5t91.5 261.5v467q0 145 -88 252q-94 113 -238 112 q-147 0 -238 -107.5t-91 -260.5v-469z" />
<glyph unicode="1" horiz-adv-x="1126" d="M248 1294v181h403v-1475h-190v1174v51q0 14 -4 22t-16.5 22.5t-33 19.5t-49.5 5h-110z" />
<glyph unicode="2" horiz-adv-x="1130" d="M76 1081q0 182 135 301q127 111 311 111q178 0 307 -123t129 -301q0 -47 -3 -71.5t-15 -86.5q-27 -109 -106 -231q-25 -39 -156 -209q-53 -68 -107 -133q-90 -117 -90 -137q0 -29 23.5 -37t58.5 -8h355v-156h-818l602 825q76 106 76 244q0 115 -66.5 183.5t-181.5 68.5 q-113 0 -191.5 -64.5t-109.5 -175.5h-153z" />
<glyph unicode="3" horiz-adv-x="1128" d="M49 438l170 -2q10 -123 91 -202.5t204 -79.5q127 0 212 95t85 224q0 158 -133 232q-106 59 -279 59v160h27q115 0 174 32q76 41 94 144l4 43q0 80 -54 132t-136 52q-72 0 -124 -45t-62 -117l-160 -2q0 145 101.5 236.5t246.5 91.5q147 0 251.5 -100.5t104.5 -247.5 q0 -94 -32 -164q-41 -84 -121 -113q29 -8 57.5 -23.5t56.5 -35.5q158 -125 158 -336q0 -207 -135 -348t-340 -141q-190 0 -325.5 133t-135.5 323z" />
<glyph unicode="4" horiz-adv-x="1128" d="M-23 444l912 1061v-1022q0 -20 2 -43.5t45 -23.5h82v-176q-39 2 -57 2q-37 0 -54.5 -10.5t-17.5 -45.5v-186h-193v184q0 20 -15 38t-34 18h-557zM246 449q0 -29 30.5 -35t75.5 -6h264q33 0 49.5 5t30.5 29v449q0 51 -24 51q-16 0 -60 -41q-14 -14 -55 -59l-250 -297 l-41 -60q-8 -10 -12 -16q-8 -12 -8 -20z" />
<glyph unicode="5" horiz-adv-x="1126" d="M51 432l168 -2q14 -113 120.5 -195.5t223.5 -82.5q139 0 236.5 109.5t97.5 250.5q0 66 -26.5 130.5t-73.5 115.5q-100 106 -258 106q-82 0 -145.5 -21.5t-119.5 -74.5l-90 61v648l670 -2v-183l-375 2q-61 0 -93 -13t-32 -67v-219q37 20 75 28.5t83 8.5q229 0 391 -139 q172 -147 172 -375q0 -217 -148.5 -375.5t-365.5 -158.5q-199 0 -350 125q-160 130 -160 323z" />
<glyph unicode="6" horiz-adv-x="1128" d="M49 492q0 121 57 245q16 37 70 140l305 598h211l-262 -494q29 8 65.5 12t73.5 4q215 0 362.5 -143t147.5 -358t-151.5 -364.5t-366.5 -149.5t-363.5 148.5t-148.5 361.5zM227 506q0 -141 95.5 -240.5t234.5 -99.5q141 0 236.5 97t95.5 237q0 141 -95.5 238.5t-236.5 97.5 q-137 0 -233.5 -96.5t-96.5 -233.5z" />
<glyph unicode="7" horiz-adv-x="1126" d="M117 1284v191h893l-609 -1475h-211l496 1184q12 27 14 33q10 25 11 36q0 20 -22.5 25.5t-33.5 5.5h-22h-516z" />
<glyph unicode="8" horiz-adv-x="1126" d="M100 446v23q0 98 37 181t115 132q35 20 49 29q25 15 45 33q-82 74 -113 123q-45 70 -45 159l7 82q18 123 124.5 205t235.5 82q166 0 270.5 -104.5t104.5 -270.5q0 -86 -37 -152.5t-109 -121.5q117 -70 181.5 -167t64.5 -226q0 -195 -134 -329t-329 -134 q-168 0 -301 110.5t-162 276.5q-2 16 -3 31.5t-1 37.5zM274 453q0 -119 84 -209t201 -90q125 0 210 87t85 214q0 123 -86 204.5t-209 81.5q-117 0 -201 -85.5t-84 -202.5zM369 1114q0 -84 55 -141.5t139 -57.5t139.5 57.5t55.5 143.5q0 82 -54.5 142.5t-138.5 60.5 t-140 -60.5t-56 -144.5z" />
<glyph unicode="9" horiz-adv-x="1128" d="M49 987q0 215 151.5 364.5t366.5 149.5q217 0 364.5 -149.5t147.5 -366.5q0 -86 -17.5 -146.5t-109.5 -240.5l-307 -598h-209l258 504q-68 -18 -137 -19q-215 0 -361.5 142.5t-146.5 359.5zM238 979q0 -137 96 -235.5t235 -98.5t235.5 98.5t96.5 239.5q0 139 -96 237.5 t-236 98.5q-143 0 -237 -98.5t-94 -241.5z" />
<glyph unicode=":" horiz-adv-x="430" d="M88 98q0 53 39 96.5t92 43.5q51 0 87 -38t36 -89q0 -57 -37 -96.5t-96 -39.5q-51 0 -86 35t-35 88zM88 791q0 53 39 96t94 43q49 0 86 -37t37 -88q0 -57 -37 -96t-96 -39q-53 0 -88 34.5t-35 86.5z" />
<glyph unicode=";" horiz-adv-x="434" d="M86 793q0 53 39 96t94 43q49 0 86 -37t37 -88q0 -57 -37 -96t-96 -39q-53 0 -88 34.5t-35 86.5zM88 109q0 55 37 98t92 43q53 0 91 -44.5t38 -99.5q2 -33 -16 -65l-127 -219h-94q41 59 65.5 96t24.5 41q0 10 -55.5 51t-55.5 99z" />
<glyph unicode="&#x3c;" horiz-adv-x="618" d="M59 391v137l392 416l108 -90l-366 -393l366 -393l-108 -91z" />
<glyph unicode="=" horiz-adv-x="1126" d="M45 563v121h1032v-121h-1032zM45 791v120h1032v-120h-1032z" />
<glyph unicode="&#x3e;" horiz-adv-x="618" d="M59 68l365 393l-365 393l109 90l391 -416v-137l-391 -414z" />
<glyph unicode="?" horiz-adv-x="768" d="M45 1313q53 88 134 136t183 48q160 0 260.5 -112.5t100.5 -274.5q0 -123 -64.5 -199.5t-187.5 -128.5q-68 -27 -135 -51q-78 -41 -78 -106q0 -57 47 -89t107 -32h18l31 -121q-51 -23 -103 -23q-111 0 -188.5 76t-77.5 187q0 86 49 151q43 57 127 100q96 39 193 78 q104 53 104 162q0 94 -61.5 157.5t-157.5 63.5q-117 0 -176 -104zM227 100q0 51 39 94.5t92 43.5q49 0 86 -37t37 -88q0 -57 -37 -96.5t-96 -39.5q-51 0 -86 35t-35 88z" />
<glyph unicode="A" horiz-adv-x="1026" d="M-29 0l551 1518l533 -1518h-189l-104 285h-502l-102 -285h-187zM346 508q0 -41 51 -41h197l18 2q37 0 54.5 6t17.5 37q0 18 -14.5 60t-26.5 79q-27 92 -41 140q-45 141 -67 161l-17 6q-18 0 -35 -36l-100 -283q-12 -33 -24.5 -73t-12.5 -58z" />
<glyph unicode="B" horiz-adv-x="1017" d="M102 0v1040q0 199 91 324q100 139 292 139q106 0 191 -39q102 -51 163.5 -143t61.5 -205q0 -100 -47 -188t-131 -129q41 -8 78 -33q25 -16 61 -55q49 -51 71.5 -126t22.5 -159q0 -186 -117.5 -306t-303.5 -120h-433zM293 1020q0 -26 2 -49q0 -72 6 -86q14 -35 76 -35 q41 0 91 8t115.5 22.5t104.5 79t39 138.5q0 96 -65.5 161.5t-163.5 65.5q-72 0 -124 -42t-73 -112q-4 -14 -6 -40.5t-2 -55.5v-55zM295 221l4 -12q6 -20 18 -27q10 -6 33 -6l62 4q61 0 129 10q117 18 180 74q74 63 74 174t-58.5 181.5t-169.5 80.5l-129 11l-43 2 q-37 0 -68.5 -9.5t-31.5 -35.5v-447z" />
<glyph unicode="C" horiz-adv-x="1122" d="M74 748q0 88 20.5 177t63.5 165q102 197 271 304t386 107h29q117 0 219 -37v-190q-117 57 -250 57q-236 0 -400.5 -177t-164.5 -415q0 -242 163.5 -415.5t403.5 -173.5q66 0 129.5 15t116.5 44v-184q-117 -49 -246 -50q-315 0 -528 227.5t-213 545.5z" />
<glyph unicode="D" horiz-adv-x="1171" d="M102 0v1475h203q332 0 562.5 -208t230.5 -538q0 -238 -121 -413t-340 -261q-61 -23 -137.5 -39t-139.5 -16h-258zM295 238q0 -37 29.5 -55.5t72.5 -18.5q53 0 106.5 21.5t114.5 58.5q131 78 212 211t81 284q0 152 -78.5 275t-214.5 203q-82 47 -137 65t-100 18 q-33 0 -59.5 -14t-26.5 -45v-1003z" />
<glyph unicode="E" horiz-adv-x="851" d="M102 0v1475h676v-166h-401q-59 0 -68 -6q-14 -10 -14 -68v-256q0 -43 13.5 -54.5t60.5 -11.5h383v-192h-392q-43 0 -54 -18.5t-11 -65.5v-379q0 -49 6 -57q10 -12 55 -13l437 2v-190h-691z" />
<glyph unicode="F" horiz-adv-x="778" d="M102 0v1475h676v-168h-401q-55 0 -68.5 -8.5t-13.5 -57.5v-264q0 -41 15.5 -52.5t58.5 -11.5h383v-194h-392q-41 0 -53 -18.5t-12 -63.5v-637h-193z" />
<glyph unicode="G" horiz-adv-x="1306" d="M74 739q0 317 222.5 537.5t537.5 220.5q57 0 110 -8t105 -29v-178q-72 23 -103 31q-59 14 -110 14q-250 0 -417 -173t-167 -425q0 -174 94 -327.5t254 -211.5q68 -23 143.5 -41t130.5 -18q70 0 104 29.5t34 99.5v442h192v-618q-66 -55 -165 -84t-197 -29 q-317 0 -542.5 225.5t-225.5 542.5z" />
<glyph unicode="H" horiz-adv-x="1275" d="M102 0v1475h193v-424q0 -14 -1 -30.5t-1 -37.5q0 -37 14.5 -53.5t63.5 -16.5h522q61 0 75.5 12.5t14.5 53.5v49v447h191v-1475h-191v627v59q0 23 -4 38t-39 15h-594q-35 0 -43 -12q-8 -10 -8 -47v-86v-594h-193z" />
<glyph unicode="I" horiz-adv-x="397" d="M102 0v1475h193v-1475h-193z" />
<glyph unicode="J" horiz-adv-x="614" d="M-29 -12v172l39 -2q127 0 219 96q59 61 78 152q12 59 12 176v893h193v-943q0 -121 -16.5 -188.5t-75.5 -155.5q-72 -109 -197 -157q-107 -43 -252 -43z" />
<glyph unicode="K" horiz-adv-x="1042" d="M102 0v1475h193v-646q0 -47 24 -49q12 0 29 15.5t33 35.5l477 644h211l-469 -648q-16 -20 -32.5 -42.5t-16.5 -41.5q0 -20 13.5 -37.5t27.5 -33.5l495 -672h-233l-379 522q-16 25 -24 33q-18 18 -35 18q-20 0 -43 -24q-10 -10 -33 -43l-25 -35q-12 -20 -16 -59t-4 -76 v-41v-295h-193z" />
<glyph unicode="L" horiz-adv-x="763" d="M102 0v1475h193v-1211q0 -29 10 -54.5t37 -25.5h43h408v-184h-691z" />
<glyph unicode="M" horiz-adv-x="1835" d="M-14 0l321 1516l350 -672q43 -86 86 -170q53 -106 88 -168q18 -33 33 -47q23 -23 51 -23q25 0 44.5 13.5t44.5 58.5q33 57 88 166l86 168l350 674l321 -1516h-190l-115 588l-61 293q-6 29 -10 37q-10 23 -27 22q-12 0 -24.5 -15.5t-22.5 -33.5l-484 -948l-319 632 l-160 316q-12 20 -18 29q-16 20 -29 20q-14 0 -23.5 -19.5t-11.5 -37.5l-61 -295l-117 -588h-190z" />
<glyph unicode="N" horiz-adv-x="1282" d="M102 0l2 1468l764 -858l58 -53q18 -14 35 -14q12 0 18 12q4 12 7 46t3 65v809h191v-1485l-770 876q-16 18 -34 39t-38 21t-31.5 -16.5t-11.5 -61.5v-31v-817h-193z" />
<glyph unicode="O" horiz-adv-x="1617" d="M74 741q0 309 215 536.5t522 227.5q309 0 524 -231q209 -225 209 -539q0 -315 -211 -542.5t-524 -227.5q-311 0 -523 230.5t-212 545.5zM246 735q0 -37 2 -55q6 -23 6 -33q37 -221 188.5 -367.5t370.5 -146.5q242 0 405.5 179.5t163.5 422.5q0 244 -159 420 q-166 182 -410 182q-184 0 -334 -114q-94 -72 -150.5 -174.5t-74.5 -227.5q-4 -23 -6 -42t-2 -44z" />
<glyph unicode="P" horiz-adv-x="915" d="M102 0v1040q0 199 91 324q100 139 292 139q150 0 267.5 -89t142.5 -234l6 -93q0 -63 -11 -110t-42 -96q-63 -102 -168 -142q-83 -32 -217 -32h-8l-160 2v-709h-193zM295 930q0 -43 20.5 -54.5t67.5 -11.5q170 0 219 19q96 35 121 170l6 47q0 96 -66.5 160.5t-164.5 64.5 q-84 0 -143.5 -61.5t-59.5 -145.5v-188z" />
<glyph unicode="Q" horiz-adv-x="1617" d="M72 735q0 313 213 541.5t524 228.5q213 0 386 -115.5t267 -312.5q41 -82 61.5 -180.5t20.5 -194.5q0 -86 -13 -147t-50 -131l30 -39q57 -88 78 -209q14 -86 15 -225v-47.5v-32.5h-164v145q0 63 -13 107q-18 67 -66 67h-1q-33 0 -53 -16l-66 -61q-72 -68 -197.5 -107 t-236.5 -39q-309 0 -522 229.5t-213 538.5zM250 733q0 -174 89 -319t245 -219l49 100q78 125 139 174q72 57 205 82q20 4 47 6t51 2q45 0 92 -9t95 -18l49 -8q37 0 55 35t18 121q0 35 -4 80t-10 96q-33 201 -191.5 337t-363.5 136q-240 0 -402.5 -176t-162.5 -420zM784 201 q0 -31 26.5 -46.5t61.5 -15.5q31 0 58.5 8.5t62.5 28.5q68 37 137 76q41 25 78 57q16 12 17 31q0 33 -54.5 51.5t-95.5 18.5q-55 0 -111.5 -17.5t-97.5 -52.5q-31 -27 -53 -61q-29 -43 -29 -78z" />
<glyph unicode="R" horiz-adv-x="1062" d="M102 0v1014q0 209 127 345t336 136q184 0 310 -136t126 -323q0 -88 -30.5 -166.5t-93.5 -136.5q-37 -35 -73 -59.5t-77 -38.5q-10 -4 -50 -17.5t-46 -13.5t-10 -14q0 -4 -3 -15q2 -16 181 -268q147 -209 219 -307h-197l-428 575q-14 18 -28 39q-23 27 -41 27 q-20 0 -25.5 -31.5t-5.5 -48.5q2 -33 2 -39v-522h-193zM297 1034q0 -115 78 -194.5t192 -79.5q115 0 184.5 83t69.5 201q0 113 -74.5 192t-183.5 79q-117 0 -191.5 -82t-74.5 -199z" />
<glyph unicode="S" horiz-adv-x="946" d="M45 334l165 74q20 -100 96.5 -172t172.5 -72q111 0 186.5 80t75.5 190q0 74 -24 125q-41 80 -174 148q-63 33 -221 88q-225 82 -226 317q0 164 100.5 278.5t264.5 114.5q113 0 204 -62.5t130 -166.5l-152 -70q-23 57 -63 90q-47 39 -105 39q-82 0 -145.5 -58t-63.5 -140 q0 -109 117 -172q150 -59 207 -84q158 -72 235 -162q94 -109 95 -264q0 -20 -1 -37t-10 -68q-25 -152 -147.5 -260t-278.5 -108q-137 0 -251.5 79.5t-165.5 208.5q-6 14 -11.5 29t-9.5 35z" />
<glyph unicode="T" horiz-adv-x="901" d="M-14 1290v185h929v-185h-313q-39 0 -47 -15t-8 -63v-1212h-193v1210q0 49 -11 64.5t-60 15.5h-297z" />
<glyph unicode="U" horiz-adv-x="1210" d="M102 549v926h193v-928q0 -178 74 -277q83 -112 255 -112h3q160 0 231 125q57 100 57 272v920h193v-922q0 -252 -115 -406q-129 -172 -372 -172q-252 0 -390 164q-129 154 -129 410z" />
<glyph unicode="V" horiz-adv-x="1040" d="M-45 1475h211l205 -584l104 -291q8 -25 21.5 -47.5t25.5 -22.5t27 21q8 12 16 31l107 297l213 596h200l-569 -1522z" />
<glyph unicode="W" horiz-adv-x="1476" d="M-14 1475h186l172 -783l16 -61l7 -4q16 0 27.5 21.5t13.5 39.5l116 266l230 539q53 -131 108 -260q76 -184 109 -260q74 -178 110 -260q6 -18 16.5 -39t22.5 -21q8 0 19 31q2 10 8 33l53 254l107 504h184l-291 -1516q-193 455 -385 911q-12 35 -22 54q-23 43 -35 43 q-16 0 -39 -41q-12 -23 -25 -56q-82 -178 -135 -301q-66 -152 -131 -303q-72 -164 -133 -305z" />
<glyph unicode="X" horiz-adv-x="1005" d="M-14 0q66 127 131 256q98 193 131 258q51 102 127 258l12 35q0 27 -9 51.5t-30 65.5l-264 551h213q39 -98 78 -190.5t86 -199.5q6 -16 22.5 -40.5t28.5 -26.5q12 0 25.5 19.5t23.5 39.5l193 398l200 -2l-295 -560q-23 -47 -28.5 -62t-5.5 -30q0 -16 8 -33.5t10 -23.5 q92 -193 186.5 -383.5t190.5 -380.5h-213l-168 356l-82 179q-10 18 -18 30q-16 23 -31 21q-10 0 -19 -13q-20 -27 -28 -53l-260 -520h-215z" />
<glyph unicode="Y" horiz-adv-x="999" d="M-45 1475h217l268 -553q8 -18 26.5 -40t31.5 -22q8 0 23.5 18.5t33.5 49.5l289 547l200 -2l-331 -609q-33 -59 -74 -155q-51 -121 -51 -160v-549h-205v541q0 51 -36 144t-68 157z" />
<glyph unicode="Z" horiz-adv-x="1003" d="M0 0l614 1184q14 23 23 37q16 29 16 36q0 20 -25.5 27.5t-62.5 7.5h-30h-402v183h842l-596 -1184q-14 -31 -23 -47q-16 -35 -16 -47q0 -14 20.5 -18.5t36.5 -4.5h541v-174h-938z" />
<glyph unicode="^" horiz-adv-x="632" d="M2 1024l215 289h201l213 -289h-166l-148 227l-145 -227h-170z" />
<glyph unicode="_" horiz-adv-x="1179" d="M0 0v59h1180v-59h-1180z" />
<glyph unicode="`" horiz-adv-x="485" d="M-2 1311h213l160 -289h-123z" />
<glyph unicode="a" d="M59 461q0 197 135.5 336t331.5 139q152 0 282 -93t155 -239l92 -604h-164l-21 137q-92 -82 -157 -114q-84 -43 -191 -43q-195 0 -329 142t-134 339zM211 459q0 -135 91 -230.5t228 -95.5q129 0 220.5 95.5t91.5 226.5q0 135 -89 232t-225 97q-133 0 -225 -96t-92 -229z " />
<glyph unicode="b" d="M88 461v1014h162v-627l12 -27l27 21q47 41 122.5 64.5t145.5 23.5q199 0 333 -140.5t134 -338.5q0 -193 -135 -330t-326 -137q-197 0 -336 139t-139 338zM250 457q0 -133 92 -227.5t227 -94.5q129 0 220.5 95.5t91.5 224.5q0 133 -89.5 228t-224.5 95q-133 0 -225 -94 t-92 -227z" />
<glyph unicode="c" horiz-adv-x="886" d="M57 459q0 199 125 336t322 137q98 0 185 -35.5t167 -105.5l-108 -99q-45 45 -101.5 64.5t-128.5 19.5q-137 0 -227 -94t-90 -231q0 -174 151 -267q88 -55 178 -55q61 0 119 25.5t94 70.5l103 -106q-55 -61 -147.5 -100t-178.5 -39q-199 0 -331 138t-132 341z" />
<glyph unicode="d" d="M59 451q0 201 133.5 340t331.5 139q63 0 145.5 -23.5t123.5 -62.5q12 -12 24 -25q6 0 12 10q4 8 5 19v627h161v-1014q0 -197 -140 -337t-337 -140q-193 0 -326 137t-133 330zM203 455q0 -129 91 -224.5t220 -95.5q133 0 225 94.5t92 229.5t-91 228t-224 93 q-131 0 -222 -95t-91 -230z" />
<glyph unicode="e" horiz-adv-x="1042" d="M59 451q0 199 132.5 341t330.5 142q199 0 337 -146.5t138 -347.5l-2 -47h-657q-45 0 -72.5 -9t-27.5 -44q0 -31 34 -76q23 -29 60 -63.5t90 -55t106 -20.5q57 0 121 29q47 20 109 67l94 -110q-133 -133 -322 -134q-197 0 -334 139.5t-137 334.5zM254 575q0 -25 25 -34 l49 -2h395h29q23 0 43 4t20 35q0 16 -18.5 48.5t-34.5 55.5q-41 51 -101.5 83t-125.5 32q-61 0 -129 -33t-105 -84q-25 -35 -36 -60.5t-11 -44.5z" />
<glyph unicode="f" horiz-adv-x="497" d="M-29 766v147h95q51 0 67 50q8 27 8 94q0 98 41 170.5t125 138.5q70 55 113 80q63 35 131 43l-2 -150q-113 -29 -182.5 -126t-69.5 -218q0 -51 33 -69q23 -12 78 -13h41h108v-147h-94h-41q-63 0 -98 -13.5t-35 -66.5v-55v-631l-162 -2l2 686q0 25 -14.5 47.5t-36 29.5 t-53.5 7q-38 -2 -54 -2z" />
<glyph unicode="g" horiz-adv-x="1071" d="M8 -344l119 80q49 -76 129 -116t174 -40q88 0 161 30t137.5 98.5t82.5 162.5q10 53 10 199v18q-113 -106 -274 -106q-203 0 -344.5 139t-141.5 342q0 193 135.5 330t325.5 137q197 0 329 -140.5t132 -338.5v-494q0 -223 -160.5 -371.5t-386.5 -148.5q-240 0 -395 176z M213 457q0 -133 92 -227.5t225 -94.5q131 0 222.5 95.5t91.5 228.5q0 129 -91 224t-223 95q-133 0 -225 -94t-92 -227z" />
<glyph unicode="h" horiz-adv-x="968" d="M88 0v1475h162v-549v-27q4 -18 20 -18q10 0 38 10t30 10q39 14 92 23.5t105 9.5q147 0 246.5 -97.5t99.5 -242.5v-594h-162v522q0 109 -49 183q-57 86 -162 86q-98 0 -178 -76t-80 -174v-541h-162z" />
<glyph unicode="i" horiz-adv-x="346" d="M66 1161q0 45 30.5 76t75.5 31t76 -31t31 -76t-32 -74.5t-75 -29.5q-45 0 -75.5 28.5t-30.5 75.5zM92 0v913h162v-913h-162z" />
<glyph unicode="j" horiz-adv-x="350" d="M-213 -430q133 14 223 121q57 68 73.5 130t16.5 167v925h162v-962q0 -74 -11 -133.5t-42 -118.5q-39 -76 -83 -118t-128 -89q-55 -31 -107.5 -49t-103.5 -18v145zM68 1161q0 45 30.5 76t77.5 31q43 0 74 -31t31 -74q0 -45 -31 -75.5t-76 -30.5q-41 0 -73.5 30.5 t-32.5 73.5z" />
<glyph unicode="k" horiz-adv-x="823" d="M88 0v1475h164v-795q0 -47 13.5 -88t49.5 -41q18 0 39 14.5t52 55.5l221 292h211l-361 -419l361 -494h-193l-280 385l-13 14q-14 14 -24 21q-14 8 -31 8q-25 0 -37 -15.5t-12 -41.5v-371h-160z" />
<glyph unicode="l" horiz-adv-x="337" d="M88 0v1475h162v-1475h-162z" />
<glyph unicode="m" horiz-adv-x="1519" d="M88 0v604q0 145 119 234.5t268 89.5q96 0 162 -23q88 -31 125 -100q113 131 287 131q152 0 262 -88q121 -96 121 -244v-604h-162v530q0 98 -61.5 172t-159.5 74q-76 0 -143.5 -57t-67.5 -133v-586h-162v580q0 88 -52.5 142t-140.5 54q-98 0 -165.5 -63.5t-67.5 -163.5 v-549h-162z" />
<glyph unicode="n" horiz-adv-x="972" d="M88 0v608q0 150 129 242q117 84 275 84q152 0 266 -86q127 -94 127 -242v-606h-164v532q0 102 -64.5 173t-167.5 71q-96 0 -167.5 -64.5t-71.5 -158.5v-553h-162z" />
<glyph unicode="o" horiz-adv-x="1044" d="M59 461q0 190 135.5 329.5t325.5 139.5q199 0 332 -140.5t133 -338.5q0 -190 -134 -328.5t-325 -138.5q-195 0 -331 140t-136 337zM211 457q0 -133 92 -227.5t227 -94.5q129 0 220.5 95.5t91.5 224.5q0 133 -89 228t-225 95q-133 0 -225 -94t-92 -227z" />
<glyph unicode="p" d="M88 467q0 197 139.5 334t335.5 137q190 0 325.5 -137t135.5 -328q0 -197 -132 -339t-329 -142q-68 0 -145.5 23.5t-126.5 64.5q-23 23 -29 20q-6 0 -10 -12q0 -2 -2 -6v-627h-162v1012zM250 465q0 -133 92 -227.5t229 -94.5q133 0 220.5 94.5t87.5 229.5q0 129 -92.5 225 t-221.5 96q-135 0 -225 -94t-90 -229z" />
<glyph unicode="q" d="M59 471q0 193 135.5 330t325.5 137q197 0 336 -137t139 -334v-1012h-161v625l-5 16l-8 4l-28 -20q-41 -39 -122 -63.5t-151 -24.5q-197 0 -329 140t-132 339zM203 465q0 -133 90 -227.5t221 -94.5q133 0 225 94.5t92 227.5q0 131 -90 227t-223 96q-129 0 -222 -95 t-93 -228z" />
<glyph unicode="r" horiz-adv-x="481" d="M88 0v913h162q-2 -23 -2 -34q0 -53 12 -54l35 21q51 41 103.5 63.5t111.5 22.5v-164l-31 2q-68 0 -122 -41t-75.5 -80t-29.5 -110l-2 -37v-502h-162z" />
<glyph unicode="s" horiz-adv-x="661" d="M0 205l131 78q20 -66 72.5 -118t115.5 -52t113.5 46t50.5 109q0 82 -94 138q-27 16 -168 69q-66 25 -107.5 82t-41.5 127q0 102 74.5 175t177.5 73q70 0 125 -37q47 -31 88 -96l-115 -72q-25 72 -98 72q-43 0 -75 -30t-32 -71q0 -51 45 -84q12 -10 162 -67 q98 -39 149 -94q61 -66 62 -164q0 -135 -93 -224.5t-229 -89.5q-106 0 -188 70q-62 51 -125 160z" />
<glyph unicode="t" horiz-adv-x="458" d="M0 766v147h35q41 0 51 9q10 8 10 47v43v168h162v-172q-2 -27 -2 -43q0 -23 7 -37.5t26 -14.5h198v-147h-143h-31q-35 0 -45 -10.5t-10 -55.5v-241q0 -39 4 -74t19.5 -81t37 -72.5t78.5 -59.5q39 -23 90 -33v-157q-170 18 -280.5 132.5t-110.5 284.5v277v26q0 23 -4 43.5 t-35 20.5h-57z" />
<glyph unicode="u" horiz-adv-x="987" d="M88 299v614h162v-557q0 -94 74.5 -160.5t169.5 -66.5q102 0 172.5 70.5t70.5 173.5v540h162v-614q0 -147 -131 -242q-116 -84 -270 -84q-156 0 -275 82q-135 94 -135 244z" />
<glyph unicode="v" horiz-adv-x="856" d="M-29 913l174 2l185 -479q20 -53 45 -104q39 -80 55 -80q14 0 27 20q20 35 41.5 89.5t31.5 82.5l181 469h174l-355 -913h-204z" />
<glyph unicode="w" horiz-adv-x="1388" d="M-29 913h174l187 -501q10 -33 20 -64q23 -55 47 -55q23 0 45 53q18 57 21 62l176 505h100l193 -514q18 -49 27 -63q25 -45 47 -45q14 0 24 13t19 36l20 61l174 512h172l-313 -913h-199l-151 434q-12 37 -19 53q-23 53 -41 54q-14 0 -32 -45q-8 -18 -21 -62l-145 -434 h-183z" />
<glyph unicode="x" horiz-adv-x="813" d="M-14 0l176 274l90 136q37 59 37 73q0 23 -125 224q-70 113 -133 206h190l117 -200l10 -21q10 -12 25.5 -22.5t27.5 -10.5q18 0 36 18.5t28 39.5l108 196h183l-174 -286q-20 -33 -41 -66q-27 -47 -27 -69q0 -23 27 -72q16 -31 45 -72l241 -348h-190l-188 297 q-8 10 -18.5 22.5t-20.5 10.5q-16 0 -45 -37q-12 -16 -33 -49l-154 -244h-192z" />
<glyph unicode="y" horiz-adv-x="825" d="M-29 913h174l234 -589q6 -18 10 -25q10 -16 23 -16q8 0 19 21.5t13 25.5l234 583h176l-588 -1458h-174l201 490q4 12 10 35.5t6 35.5q0 14 -3 28.5t-19 59.5z" />
<glyph unicode="z" horiz-adv-x="776" d="M0 0l391 666q16 25 25 36q16 25 14 39q0 18 -19.5 30.5t-56.5 12.5h-274v129h643l-387 -651q-16 -25 -31 -47q-20 -35 -20 -51q0 -18 14 -24.5t41 -6.5h22h369v-133h-731z" />
<glyph unicode="~" horiz-adv-x="614" d="M2 1053l4 39q18 76 49 110q39 45 111 45q47 0 117 -24q150 -53 176 -54q33 0 49 21q8 10 16 31l2 18h86q-10 -84 -43 -131q-41 -59 -116 -59q-53 0 -150.5 37.5t-132.5 37.5q-31 0 -56.5 -19t-25.5 -50z" />
<glyph unicode="&#xa1;" horiz-adv-x="430" d="M88 1370q0 59 36 97t95 38q53 0 88 -32.5t35 -86.5q0 -55 -38 -97t-93 -42q-49 0 -86 37t-37 86zM117 0v1094h192v-1094h-192z" />
<glyph unicode="&#xa2;" horiz-adv-x="1044" d="M72 453q0 201 125 340t321 139q61 0 123 -17.5t123 -48.5l78 131l127 -69l-496 -789q41 -10 74 -10q55 0 114.5 26.5t96.5 69.5l102 -104q-68 -68 -151.5 -106t-178.5 -38q-72 0 -139 27l-117 -182l-120 72l104 172q-98 96 -139 172q-47 90 -47 215zM221 442 q0 -78 30 -141t93 -102l336 546q-31 16 -65.5 22.5t-75.5 6.5q-115 0 -189 -55t-110 -162q-18 -55 -19 -115z" />
<glyph unicode="&#xa3;" horiz-adv-x="1089" d="M33 121q0 63 53 106q14 12 36.5 18.5t88.5 16.5l53 17q14 37 20.5 90t6.5 96q0 55 -8 98q-18 117 -39 143.5t-90 26.5q-25 0 -51.5 -1t-57.5 -1l2 141h37q39 0 61.5 7.5t22.5 33.5q0 31 -8 76q-18 102 -19 127q0 37 17 86q10 29 18 51q45 111 127 174q90 70 203 70 q154 0 258 -102.5t121 -257.5l-162 -2q-10 80 -70.5 138t-140.5 58q-96 0 -150.5 -85t-54.5 -187q0 -72 25 -121q33 -66 96 -66h61h136v-141h-99q-25 2 -41 2q-25 0 -41 -7t-16 -26q0 -10 10 -53q4 -16 4 -31q4 -49 8.5 -105t4.5 -99q0 -59 -7.5 -100.5t-25.5 -90.5 q37 -43 91 -59.5t124 -16.5q115 0 190.5 91.5t75.5 207.5l160 -2q0 -119 -53.5 -221t-153.5 -170q-53 -35 -101 -52t-110 -17q-66 0 -143 20q-96 31 -142 45q-70 -23 -151 -57l-29 -8q-55 0 -101 42t-46 97z" />
<glyph unicode="&#xa5;" horiz-adv-x="1179" d="M45 1475h217l268 -553q8 -18 26.5 -40t31.5 -22q8 0 23.5 18.5t33.5 49.5l289 547h201l-408 -768h381v-123h-426v-56h426v-120h-432v-408h-203v408l-424 2v118l424 -2v58l-422 -2v125h383z" />
<glyph unicode="&#xa8;" horiz-adv-x="483" d="M-45 1137q0 43 31.5 72.5t74.5 29.5q45 0 76 -30.5t31 -75.5q0 -47 -30 -75t-77 -28q-45 0 -75.5 28.5t-30.5 78.5zM315 1137q0 43 31 73.5t76 30.5t75.5 -30.5t30.5 -77.5t-29.5 -75t-76.5 -28q-45 0 -76 28.5t-31 78.5z" />
<glyph unicode="&#xad;" horiz-adv-x="591" d="M59 461v160h473v-160h-473z" />
<glyph unicode="&#xaf;" horiz-adv-x="561" d="M4 1055v139h557v-139h-557z" />
<glyph unicode="&#xb0;" horiz-adv-x="483" d="M78 1227q0 78 53 133t133 55q78 0 133.5 -55t55.5 -133t-53.5 -133.5t-131.5 -55.5t-134 54.5t-56 134.5zM158 1229q0 -47 28.5 -78t77.5 -31q45 0 76 31t31 76q0 43 -31 75.5t-76 32.5q-43 0 -74.5 -31.5t-31.5 -74.5z" />
<glyph unicode="&#xb4;" horiz-adv-x="425" d="M115 1024l155 289h215l-249 -289h-121z" />
<glyph unicode="&#xb7;" horiz-adv-x="430" d="M88 537q0 55 39 98t92 43q51 0 87 -38t36 -89q0 -57 -37 -96t-96 -39q-51 0 -86 34.5t-35 86.5z" />
<glyph unicode="&#xb8;" horiz-adv-x="243" d="M70 -84h172v-145q0 -162 -146 -195l-24 -4l-2 76h14q35 4 56.5 33.5t21.5 64.5v12h-92v158z" />
<glyph unicode="&#xbf;" horiz-adv-x="768" d="M43 367q0 121 70 202q61 74 182 123q68 25 135 49q80 39 80 107q0 59 -54 92t-120 33l-31 119q49 23 101 22q115 0 191.5 -74.5t76.5 -189.5q0 -86 -46 -144.5t-130 -103.5q-96 -39 -191 -78q-104 -55 -104 -162q0 -96 61.5 -157.5t157.5 -61.5q119 0 176 101l127 -80 q-121 -184 -322 -184q-158 0 -259 113.5t-101 273.5zM285 1370q0 55 37.5 91t95.5 36q51 0 86 -35t35 -84q0 -53 -39 -96t-92 -43t-88 39t-35 92z" />
<glyph unicode="&#xc0;" horiz-adv-x="1026" d="M-29 0l551 1518l533 -1518h-189l-104 285h-502l-102 -285h-187zM268 1855h213l160 -288h-123zM346 508q0 -41 51 -41h197l18 2q37 0 54.5 6t17.5 37q0 18 -14.5 60t-26.5 79q-27 92 -41 140q-45 141 -67 161l-17 6q-18 0 -35 -36l-100 -283q-12 -33 -24.5 -73t-12.5 -58z " />
<glyph unicode="&#xc1;" horiz-adv-x="1026" d="M-29 0l551 1518l533 -1518h-189l-104 285h-502l-102 -285h-187zM346 508q0 -41 51 -41h197l18 2q37 0 54.5 6t17.5 37q0 18 -14.5 60t-26.5 79q-27 92 -41 140q-45 141 -67 161l-17 6q-18 0 -35 -36l-100 -283q-12 -33 -24.5 -73t-12.5 -58zM414 1569l155 289h215 l-249 -289h-121z" />
<glyph unicode="&#xc2;" horiz-adv-x="1026" d="M-29 0l551 1518l533 -1518h-189l-104 285h-502l-102 -285h-187zM199 1569l215 289h200l213 -289h-165l-148 227l-145 -227h-170zM346 508q0 -41 51 -41h197l18 2q37 0 54.5 6t17.5 37q0 18 -14.5 60t-26.5 79q-27 92 -41 140q-45 141 -67 161l-17 6q-18 0 -35 -36 l-100 -283q-12 -33 -24.5 -73t-12.5 -58z" />
<glyph unicode="&#xc3;" horiz-adv-x="1026" d="M-29 0l551 1518l533 -1518h-189l-104 285h-502l-102 -285h-187zM207 1597l4 39q18 76 49 111q39 45 111 45q47 0 116 -25q150 -53 177 -53q33 0 49 21q8 10 16 30l2 19h86q-10 -84 -43 -131q-41 -59 -117 -60q-53 0 -150 38t-132 38q-31 0 -56.5 -19.5t-25.5 -50.5z M346 508q0 -41 51 -41h197l18 2q37 0 54.5 6t17.5 37q0 18 -14.5 60t-26.5 79q-27 92 -41 140q-45 141 -67 161l-17 6q-18 0 -35 -36l-100 -283q-12 -33 -24.5 -73t-12.5 -58z" />
<glyph unicode="&#xc4;" horiz-adv-x="1026" d="M-29 0l551 1518l533 -1518h-189l-104 285h-502l-102 -285h-187zM233 1653q0 45 31 75.5t76 30.5t75.5 -30.5t30.5 -75.5t-31.5 -75t-74.5 -30q-45 0 -76 29t-31 76zM346 508q0 -41 51 -41h197l18 2q37 0 54.5 6t17.5 37q0 18 -14.5 60t-26.5 79q-27 92 -41 140 q-45 141 -67 161l-17 6q-18 0 -35 -36l-100 -283q-12 -33 -24.5 -73t-12.5 -58zM594 1653q0 45 30.5 75.5t75.5 30.5t76 -30.5t31 -75.5q0 -43 -31 -74t-76 -31t-75.5 29t-30.5 76z" />
<glyph unicode="&#xc5;" horiz-adv-x="1026" d="M-29 0l551 1518l533 -1518h-189l-104 285h-502l-102 -285h-187zM330 1743q0 78 55 133t133 55t131 -55t53 -133t-53 -133.5t-131 -55.5t-133 55.5t-55 133.5zM346 508q0 -41 51 -41h197l18 2q37 0 54.5 6t17.5 37q0 18 -14.5 60t-26.5 79q-27 92 -41 140q-45 141 -67 161 l-17 6q-18 0 -35 -36l-100 -283q-12 -33 -24.5 -73t-12.5 -58zM410 1747q0 -47 28.5 -78t77.5 -31q45 0 76 31t31 76q0 43 -31 75.5t-76 32.5q-43 0 -74.5 -31.5t-31.5 -74.5z" />
<glyph unicode="&#xc6;" horiz-adv-x="1611" d="M-29 0l551 1518l25 -43h977v-166h-799q-51 0 -69.5 -5.5t-18.5 -43.5q0 -20 63 -205q37 -106 41 -120.5t22.5 -18t43.5 -3.5h690v-192h-586q-29 0 -49 -14.5t-20 -44.5q0 -16 53 -185q33 -102 66 -205q16 -53 24 -63q16 -20 62 -21l491 2v-190h-686l-94 285h-486 l-114 -285h-187zM346 508q0 -41 51 -41h197l18 2q37 0 54.5 6t17.5 37q0 18 -14.5 60t-26.5 79q-27 92 -41 140q-45 141 -67 161l-17 6q-18 0 -35 -36l-100 -283q-12 -33 -24.5 -73t-12.5 -58z" />
<glyph unicode="&#xc7;" horiz-adv-x="1122" d="M74 748q0 88 20.5 177t63.5 165q102 197 271 304t386 107h29q117 0 219 -37v-190q-117 57 -250 57q-236 0 -400.5 -177t-164.5 -415q0 -242 163.5 -415.5t403.5 -173.5q66 0 129.5 15t116.5 44v-184q-117 -49 -246 -50q-315 0 -528 227.5t-213 545.5zM647 -354l15 2 q35 6 56 33.5t21 64.5v12h-90v158h170v-147q0 -160 -145 -193l-25 -4z" />
<glyph unicode="&#xc8;" horiz-adv-x="851" d="M102 0v1475h676v-166h-401q-59 0 -68 -6q-14 -10 -14 -68v-256q0 -43 13.5 -54.5t60.5 -11.5h383v-192h-392q-43 0 -54 -18.5t-11 -65.5v-379q0 -49 6 -57q10 -12 55 -13l437 2v-190h-691zM182 1855h213l160 -288h-123z" />
<glyph unicode="&#xc9;" horiz-adv-x="851" d="M102 0v1475h676v-166h-401q-59 0 -68 -6q-14 -10 -14 -68v-256q0 -43 13.5 -54.5t60.5 -11.5h383v-192h-392q-43 0 -54 -18.5t-11 -65.5v-379q0 -49 6 -57q10 -12 55 -13l437 2v-190h-691zM328 1569l155 289h215l-249 -289h-121z" />
<glyph unicode="&#xca;" horiz-adv-x="851" d="M102 0v1475h676v-166h-401q-59 0 -68 -6q-14 -10 -14 -68v-256q0 -43 13.5 -54.5t60.5 -11.5h383v-192h-392q-43 0 -54 -18.5t-11 -65.5v-379q0 -49 6 -57q10 -12 55 -13l437 2v-190h-691zM113 1569l215 289h200l213 -289h-166l-147 227l-145 -227h-170z" />
<glyph unicode="&#xcb;" horiz-adv-x="851" d="M102 0v1475h676v-166h-401q-59 0 -68 -6q-14 -10 -14 -68v-256q0 -43 13.5 -54.5t60.5 -11.5h383v-192h-392q-43 0 -54 -18.5t-11 -65.5v-379q0 -49 6 -57q10 -12 55 -13l437 2v-190h-691zM139 1681q0 43 32 73t75 30q45 0 75.5 -31t30.5 -76q0 -47 -29.5 -74.5 t-76.5 -27.5q-45 0 -76 28.5t-31 77.5zM500 1681q0 43 30.5 74t75.5 31t76 -31t31 -78t-30 -74.5t-77 -27.5q-45 0 -75.5 28.5t-30.5 77.5z" />
<glyph unicode="&#xcc;" horiz-adv-x="397" d="M-45 1855h213l160 -288h-123zM102 0v1475h193v-1475h-193z" />
<glyph unicode="&#xcd;" horiz-adv-x="397" d="M100 1569l156 289h215l-250 -289h-121zM102 0v1475h193v-1475h-193z" />
<glyph unicode="&#xce;" horiz-adv-x="397" d="M-115 1569l215 289h201l213 -289h-166l-147 227l-146 -227h-170zM102 0v1475h193v-1475h-193z" />
<glyph unicode="&#xcf;" horiz-adv-x="397" d="M-88 1681q0 43 31.5 73t74.5 30q45 0 76 -31t31 -76q0 -47 -30 -74.5t-77 -27.5q-45 0 -75.5 28.5t-30.5 77.5zM102 0v1475h193v-1475h-193zM272 1681q0 43 31 74t76 31t75.5 -31t30.5 -78t-29.5 -74.5t-76.5 -27.5q-45 0 -76 28.5t-31 77.5z" />
<glyph unicode="&#xd1;" horiz-adv-x="1282" d="M102 0l2 1468l764 -858l58 -53q18 -14 35 -14q12 0 18 12q4 12 7 46t3 65v809h191v-1485l-770 876q-16 18 -34 39t-38 21t-31.5 -16.5t-11.5 -61.5v-31v-817h-193zM336 1597l4 39q18 76 49 111q39 45 111 45q47 0 116 -25q150 -53 177 -53q33 0 49 21q8 10 16 30l2 19h86 q-10 -84 -43 -131q-41 -59 -117 -60q-53 0 -150 38t-132 38q-31 0 -56.5 -19.5t-25.5 -50.5z" />
<glyph unicode="&#xd2;" horiz-adv-x="1617" d="M74 741q0 309 215 536.5t522 227.5q309 0 524 -231q209 -225 209 -539q0 -315 -211 -542.5t-524 -227.5q-311 0 -523 230.5t-212 545.5zM246 735q0 -37 2 -55q6 -23 6 -33q37 -221 188.5 -367.5t370.5 -146.5q242 0 405.5 179.5t163.5 422.5q0 244 -159 420 q-166 182 -410 182q-184 0 -334 -114q-94 -72 -150.5 -174.5t-74.5 -227.5q-4 -23 -6 -42t-2 -44zM565 1855h213l160 -288h-123z" />
<glyph unicode="&#xd3;" horiz-adv-x="1617" d="M74 741q0 309 215 536.5t522 227.5q309 0 524 -231q209 -225 209 -539q0 -315 -211 -542.5t-524 -227.5q-311 0 -523 230.5t-212 545.5zM246 735q0 -37 2 -55q6 -23 6 -33q37 -221 188.5 -367.5t370.5 -146.5q242 0 405.5 179.5t163.5 422.5q0 244 -159 420 q-166 182 -410 182q-184 0 -334 -114q-94 -72 -150.5 -174.5t-74.5 -227.5q-4 -23 -6 -42t-2 -44zM711 1569l155 289h215l-250 -289h-120z" />
<glyph unicode="&#xd4;" horiz-adv-x="1617" d="M74 741q0 309 215 536.5t522 227.5q309 0 524 -231q209 -225 209 -539q0 -315 -211 -542.5t-524 -227.5q-311 0 -523 230.5t-212 545.5zM246 735q0 -37 2 -55q6 -23 6 -33q37 -221 188.5 -367.5t370.5 -146.5q242 0 405.5 179.5t163.5 422.5q0 244 -159 420 q-166 182 -410 182q-184 0 -334 -114q-94 -72 -150.5 -174.5t-74.5 -227.5q-4 -23 -6 -42t-2 -44zM496 1569l215 289h200l213 -289h-166l-147 227l-145 -227h-170z" />
<glyph unicode="&#xd5;" horiz-adv-x="1617" d="M74 741q0 309 215 536.5t522 227.5q309 0 524 -231q209 -225 209 -539q0 -315 -211 -542.5t-524 -227.5q-311 0 -523 230.5t-212 545.5zM246 735q0 -37 2 -55q6 -23 6 -33q37 -221 188.5 -367.5t370.5 -146.5q242 0 405.5 179.5t163.5 422.5q0 244 -159 420 q-166 182 -410 182q-184 0 -334 -114q-94 -72 -150.5 -174.5t-74.5 -227.5q-4 -23 -6 -42t-2 -44zM504 1597l4 39q18 76 49 111q39 45 111 45q47 0 116 -25q150 -53 177 -53q33 0 49 21q8 10 16 30l2 19h86q-10 -84 -43 -131q-41 -59 -117 -60q-53 0 -150 38t-132 38 q-31 0 -56.5 -19.5t-25.5 -50.5z" />
<glyph unicode="&#xd6;" horiz-adv-x="1617" d="M74 741q0 309 215 536.5t522 227.5q309 0 524 -231q209 -225 209 -539q0 -315 -211 -542.5t-524 -227.5q-311 0 -523 230.5t-212 545.5zM246 735q0 -37 2 -55q6 -23 6 -33q37 -221 188.5 -367.5t370.5 -146.5q242 0 405.5 179.5t163.5 422.5q0 244 -159 420 q-166 182 -410 182q-184 0 -334 -114q-94 -72 -150.5 -174.5t-74.5 -227.5q-4 -23 -6 -42t-2 -44zM537 1657q0 45 30.5 75.5t75.5 30.5t76 -30.5t31 -77.5q0 -45 -31 -74t-76 -29t-75.5 29t-30.5 76zM897 1657q0 43 32 74.5t75 31.5q45 0 75.5 -30.5t30.5 -77.5 q0 -45 -30.5 -74t-75.5 -29t-76 29t-31 76z" />
<glyph unicode="&#xd8;" horiz-adv-x="1613" d="M10 76l215 198q-78 94 -115.5 214t-37.5 253q0 311 213 537.5t522 226.5q150 0 288 -60.5t236 -170.5l217 196l58 -59l-220 -201q74 -113 115 -227.5t41 -237.5q0 -322 -205 -546q-211 -233 -530 -234q-150 0 -290 60.5t-236 173.5l-213 -199zM246 731q0 -193 104 -346 l858 784q-63 78 -176.5 124t-220.5 46q-49 0 -84 -7t-92 -25q-119 -43 -193.5 -114t-135 -195t-60.5 -267zM410 311q76 -86 181 -133t220 -47q244 0 405.5 180.5t161.5 425.5q0 94 -27.5 182.5t-82.5 172.5z" />
<glyph unicode="&#xd9;" horiz-adv-x="1210" d="M102 549v926h193v-928q0 -178 74 -277q84 -113 258 -112q160 0 231 125q57 100 57 272v920h193v-922q0 -252 -115 -406q-129 -172 -372 -172q-252 0 -390 164q-129 154 -129 410zM360 1855h213l160 -288h-123z" />
<glyph unicode="&#xda;" horiz-adv-x="1210" d="M102 549v926h193v-928q0 -178 74 -277q84 -113 258 -112q160 0 231 125q57 100 57 272v920h193v-922q0 -252 -115 -406q-129 -172 -372 -172q-252 0 -390 164q-129 154 -129 410zM506 1569l156 289h215l-250 -289h-121z" />
<glyph unicode="&#xdb;" horiz-adv-x="1210" d="M102 549v926h193v-928q0 -178 74 -277q84 -113 258 -112q160 0 231 125q57 100 57 272v920h193v-922q0 -252 -115 -406q-129 -172 -372 -172q-252 0 -390 164q-129 154 -129 410zM291 1569l215 289h201l213 -289h-166l-148 227l-145 -227h-170z" />
<glyph unicode="&#xdc;" horiz-adv-x="1210" d="M102 549v926h193v-928q0 -178 74 -277q84 -113 258 -112q160 0 231 125q57 100 57 272v920h193v-922q0 -252 -115 -406q-129 -172 -372 -172q-252 0 -390 164q-129 154 -129 410zM319 1659q0 43 32 74.5t75 31.5q45 0 75.5 -30.5t30.5 -77.5q0 -45 -30.5 -74t-75.5 -29 t-76 29t-31 76zM682 1659q0 45 28.5 75.5t75.5 30.5q45 0 77 -31.5t32 -76.5q0 -43 -32 -73t-75 -30q-45 0 -75.5 29t-30.5 76z" />
<glyph unicode="&#xdf;" horiz-adv-x="1134" d="M88 770v143h94q39 0 53.5 20.5t14.5 59.5v217q0 90 51 162t139 105q53 18 109 18q125 0 207 -86t82 -213l-4 -430q-29 33 -74 33q-41 0 -72 -29t-31 -72q0 -51 45 -84q12 -8 164 -67q98 -39 150 -94q61 -66 61 -162q0 -133 -93 -224.5t-228 -91.5q-106 0 -189 70 q-61 51 -125 160l131 78q20 -66 72.5 -118t116.5 -52q63 0 113.5 46t50.5 109q0 82 -95 138q-27 16 -167 69q-66 25 -106 81t-40 124q0 72 32 126t95 91l33 18v285q0 53 -39 94t-94 41q-53 0 -95 -40t-42 -95v-1200l-164 -2l2 688l-4 21q-10 39 -36 51t-69 12h-49z" />
<glyph unicode="&#xe0;" d="M59 461q0 197 135.5 336t331.5 139q152 0 282 -93t155 -239l92 -604h-164l-21 137q-92 -82 -157 -114q-84 -43 -191 -43q-195 0 -329 142t-134 339zM211 459q0 -135 91 -230.5t228 -95.5q129 0 220.5 95.5t91.5 226.5q0 135 -89 232t-225 97q-133 0 -225 -96t-92 -229z M297 1311h213l160 -289h-123z" />
<glyph unicode="&#xe1;" d="M59 461q0 197 135.5 336t331.5 139q152 0 282 -93t155 -239l92 -604h-164l-21 137q-92 -82 -157 -114q-84 -43 -191 -43q-195 0 -329 142t-134 339zM211 459q0 -135 91 -230.5t228 -95.5q129 0 220.5 95.5t91.5 226.5q0 135 -89 232t-225 97q-133 0 -225 -96t-92 -229z M442 1024l156 289h215l-250 -289h-121z" />
<glyph unicode="&#xe2;" d="M59 461q0 197 135.5 336t331.5 139q152 0 282 -93t155 -239l92 -604h-164l-21 137q-92 -82 -157 -114q-84 -43 -191 -43q-195 0 -329 142t-134 339zM211 459q0 -135 91 -230.5t228 -95.5q129 0 220.5 95.5t91.5 226.5q0 135 -89 232t-225 97q-133 0 -225 -96t-92 -229z M227 1024l215 289h201l213 -289h-166l-147 227l-146 -227h-170z" />
<glyph unicode="&#xe3;" d="M59 461q0 197 135.5 336t331.5 139q152 0 282 -93t155 -239l92 -604h-164l-21 137q-92 -82 -157 -114q-84 -43 -191 -43q-195 0 -329 142t-134 339zM211 459q0 -135 91 -230.5t228 -95.5q129 0 220.5 95.5t91.5 226.5q0 135 -89 232t-225 97q-133 0 -225 -96t-92 -229z M236 1053l4 39q18 76 49 110q39 45 110 45q47 0 117 -24q150 -53 176 -54q33 0 49 21q8 10 17 31l2 18h86q-10 -84 -43 -131q-41 -59 -117 -59q-53 0 -150.5 37.5t-132.5 37.5q-31 0 -56 -19t-25 -50z" />
<glyph unicode="&#xe4;" d="M59 461q0 197 135.5 336t331.5 139q152 0 282 -93t155 -239l92 -604h-164l-21 137q-92 -82 -157 -114q-84 -43 -191 -43q-195 0 -329 142t-134 339zM211 459q0 -135 91 -230.5t228 -95.5q129 0 220.5 95.5t91.5 226.5q0 135 -89 232t-225 97q-133 0 -225 -96t-92 -229z M250 1137q0 43 30.5 73.5t75.5 30.5t76 -30.5t31 -77.5t-30 -75t-77 -28q-45 0 -75.5 28.5t-30.5 78.5zM610 1135q0 43 34 74.5t75 31.5q45 0 74.5 -31.5t29.5 -76.5q0 -49 -28.5 -76t-77.5 -27q-45 0 -76 28.5t-31 76.5z" />
<glyph unicode="&#xe5;" horiz-adv-x="1099" d="M59 461q0 197 135.5 336t331.5 139q152 0 282 -93t155 -239l92 -604h-164l-21 137q-92 -82 -157 -114q-84 -43 -191 -43q-195 0 -329 142t-134 339zM211 459q0 -135 91 -230.5t228 -95.5q129 0 220.5 95.5t91.5 226.5q0 135 -89 232t-225 97q-133 0 -225 -96t-92 -229z M350 1227q0 78 53.5 133t133.5 55q78 0 134 -54t56 -134q0 -78 -55.5 -133.5t-132.5 -55.5q-78 0 -133.5 55.5t-55.5 133.5zM430 1229q0 -45 32 -77t77 -32t75.5 31t30.5 76t-30.5 75.5t-77.5 30.5q-41 0 -74 -30.5t-33 -73.5z" />
<glyph unicode="&#xe6;" horiz-adv-x="1828" d="M59 465q0 193 135.5 332t325.5 139q125 0 232 -61.5t166 -172.5q41 102 157.5 168t233.5 66q199 0 337 -146.5t138 -347.5l-2 -49h-664q-57 0 -77.5 -13t-20.5 -42q0 -39 57 -96q47 -47 87 -72t75 -36t74 -11q47 0 85 15.5t148 82.5l90 -110q-59 -59 -147 -96.5 t-172 -37.5q-139 0 -268 80l6 -57h-164l-21 137q-92 -82 -157 -114q-84 -43 -191 -43q-195 0 -329 144t-134 341zM211 459q0 -135 91 -230.5t228 -95.5q129 0 220.5 95.5t91.5 226.5q0 135 -89 232t-225 97q-133 0 -225 -96t-92 -229zM1042 573q0 -25 23 -34l51 -2h395h29 q23 0 43.5 4t20.5 34q0 18 -19.5 51t-36.5 54q-39 51 -99 83t-124 32q-63 0 -131 -33t-104 -84q-25 -35 -36.5 -60.5t-11.5 -44.5z" />
<glyph unicode="&#xe7;" horiz-adv-x="886" d="M57 459q0 199 125 336t322 137q98 0 185 -35.5t167 -105.5l-108 -99q-45 45 -101.5 64.5t-128.5 19.5q-137 0 -227 -94t-90 -231q0 -174 151 -267q88 -55 178 -55q61 0 119 25.5t94 70.5l103 -106q-55 -61 -147.5 -100t-178.5 -39q-199 0 -331 138t-132 341zM403 -84h170 v-145q0 -78 -34.5 -128.5t-108.5 -66.5l-24 -2l2 74l10 2q39 10 57.5 32.5t18.5 65.5v10h-91v158z" />
<glyph unicode="&#xe8;" horiz-adv-x="1042" d="M59 451q0 199 132.5 341t330.5 142q199 0 337 -146.5t138 -347.5l-2 -47h-657q-45 0 -72.5 -9t-27.5 -44q0 -31 34 -76q23 -29 60 -63.5t90 -55t106 -20.5q57 0 121 29q47 20 109 67l94 -110q-133 -133 -322 -134q-197 0 -334 139.5t-137 334.5zM254 575q0 -25 25 -34 l49 -2h395h29q23 0 43 4t20 35q0 16 -18.5 48.5t-34.5 55.5q-41 51 -101.5 83t-125.5 32q-61 0 -129 -33t-105 -84q-25 -35 -36 -60.5t-11 -44.5zM276 1313h213l160 -289h-123z" />
<glyph unicode="&#xe9;" horiz-adv-x="1042" d="M59 451q0 199 132.5 341t330.5 142q199 0 337 -146.5t138 -347.5l-2 -47h-657q-45 0 -72.5 -9t-27.5 -44q0 -31 34 -76q23 -29 60 -63.5t90 -55t106 -20.5q57 0 121 29q47 20 109 67l94 -110q-133 -133 -322 -134q-197 0 -334 139.5t-137 334.5zM254 575q0 -25 25 -34 l49 -2h395h29q23 0 43 4t20 35q0 16 -18.5 48.5t-34.5 55.5q-41 51 -101.5 83t-125.5 32q-61 0 -129 -33t-105 -84q-25 -35 -36 -60.5t-11 -44.5zM422 1026l156 289h215l-250 -289h-121z" />
<glyph unicode="&#xea;" horiz-adv-x="1042" d="M59 451q0 199 132.5 341t330.5 142q199 0 337 -146.5t138 -347.5l-2 -47h-657q-45 0 -72.5 -9t-27.5 -44q0 -31 34 -76q23 -29 60 -63.5t90 -55t106 -20.5q57 0 121 29q47 20 109 67l94 -110q-133 -133 -322 -134q-197 0 -334 139.5t-137 334.5zM207 1026l215 289h201 l213 -289h-166l-148 227l-145 -227h-170zM254 575q0 -25 25 -34l49 -2h395h29q23 0 43 4t20 35q0 16 -18.5 48.5t-34.5 55.5q-41 51 -101.5 83t-125.5 32q-61 0 -129 -33t-105 -84q-25 -35 -36 -60.5t-11 -44.5z" />
<glyph unicode="&#xeb;" horiz-adv-x="1042" d="M59 451q0 199 132.5 341t330.5 142q199 0 337 -146.5t138 -347.5l-2 -47h-657q-45 0 -72.5 -9t-27.5 -44q0 -31 34 -76q23 -29 60 -63.5t90 -55t106 -20.5q57 0 121 29q47 20 109 67l94 -110q-133 -133 -322 -134q-197 0 -334 139.5t-137 334.5zM233 1139q0 43 32 72.5 t75 29.5q45 0 75.5 -30.5t30.5 -75.5q0 -47 -29.5 -75t-76.5 -28q-45 0 -76 29t-31 78zM254 575q0 -25 25 -34l49 -2h395h29q23 0 43 4t20 35q0 16 -18.5 48.5t-34.5 55.5q-41 51 -101.5 83t-125.5 32q-61 0 -129 -33t-105 -84q-25 -35 -36 -60.5t-11 -44.5zM594 1139 q0 43 30.5 73.5t75.5 30.5t76 -30.5t31 -77.5t-30 -75t-77 -28q-45 0 -75.5 29t-30.5 78z" />
<glyph unicode="&#xec;" horiz-adv-x="337" d="M-76 1311h213l160 -289h-123zM88 0v913h162v-913h-162z" />
<glyph unicode="&#xed;" horiz-adv-x="337" d="M70 1024l155 289h215l-250 -289h-120zM88 0v913h162v-913h-162z" />
<glyph unicode="&#xee;" horiz-adv-x="337" d="M-145 1024l215 289h200l213 -289h-166l-147 227l-145 -227h-170zM88 0v913h162v-913h-162z" />
<glyph unicode="&#xef;" horiz-adv-x="337" d="M-119 1137q0 43 32 72.5t75 29.5q45 0 75.5 -30.5t30.5 -75.5q0 -47 -29.5 -75t-76.5 -28q-45 0 -76 28.5t-31 78.5zM88 0v913h162v-913h-162zM242 1137q0 43 30.5 73.5t75.5 30.5t76 -30.5t31 -77.5t-30 -75t-77 -28q-45 0 -75.5 28.5t-30.5 78.5z" />
<glyph unicode="&#xf1;" horiz-adv-x="972" d="M88 0v608q0 150 129 242q117 84 275 84q152 0 266 -86q127 -94 127 -242v-606h-164v532q0 102 -64.5 173t-167.5 71q-96 0 -167.5 -64.5t-71.5 -158.5v-553h-162zM180 1053l4 39q18 76 49 110q39 45 111 45q47 0 117 -24q150 -53 176 -54q33 0 49 21q8 10 16 31l3 18h86 q-10 -84 -43 -131q-41 -59 -117 -59q-53 0 -150.5 37.5t-132.5 37.5q-31 0 -56.5 -19t-25.5 -50z" />
<glyph unicode="&#xf2;" horiz-adv-x="1044" d="M59 461q0 190 135.5 329.5t325.5 139.5q199 0 332 -140.5t133 -338.5q0 -190 -134 -328.5t-325 -138.5q-195 0 -331 140t-136 337zM211 457q0 -133 92 -227.5t227 -94.5q129 0 220.5 95.5t91.5 224.5q0 133 -89 228t-225 95q-133 0 -225 -94t-92 -227zM279 1311h213 l159 -289h-123z" />
<glyph unicode="&#xf3;" horiz-adv-x="1044" d="M59 461q0 190 135.5 329.5t325.5 139.5q199 0 332 -140.5t133 -338.5q0 -190 -134 -328.5t-325 -138.5q-195 0 -331 140t-136 337zM211 457q0 -133 92 -227.5t227 -94.5q129 0 220.5 95.5t91.5 224.5q0 133 -89 228t-225 95q-133 0 -225 -94t-92 -227zM424 1024l156 289 h215l-250 -289h-121z" />
<glyph unicode="&#xf4;" horiz-adv-x="1044" d="M59 461q0 190 135.5 329.5t325.5 139.5q199 0 332 -140.5t133 -338.5q0 -190 -134 -328.5t-325 -138.5q-195 0 -331 140t-136 337zM209 1024l215 289h201l213 -289h-166l-148 227l-145 -227h-170zM211 457q0 -133 92 -227.5t227 -94.5q129 0 220.5 95.5t91.5 224.5 q0 133 -89 228t-225 95q-133 0 -225 -94t-92 -227z" />
<glyph unicode="&#xf5;" horiz-adv-x="1044" d="M59 461q0 190 135.5 329.5t325.5 139.5q199 0 332 -140.5t133 -338.5q0 -190 -134 -328.5t-325 -138.5q-195 0 -331 140t-136 337zM211 457q0 -133 92 -227.5t227 -94.5q129 0 220.5 95.5t91.5 224.5q0 133 -89 228t-225 95q-133 0 -225 -94t-92 -227zM217 1053l4 39 q18 76 49 110q39 45 111 45q47 0 117 -24q150 -53 176 -54q33 0 49 21q8 10 16 31l2 18h86q-10 -84 -43 -131q-41 -59 -116 -59q-53 0 -150.5 37.5t-132.5 37.5q-31 0 -56.5 -19t-25.5 -50z" />
<glyph unicode="&#xf6;" horiz-adv-x="1044" d="M59 461q0 190 135.5 329.5t325.5 139.5q199 0 332 -140.5t133 -338.5q0 -190 -134 -328.5t-325 -138.5q-195 0 -331 140t-136 337zM211 457q0 -133 92 -227.5t227 -94.5q129 0 220.5 95.5t91.5 224.5q0 133 -89 228t-225 95q-133 0 -225 -94t-92 -227zM229 1137 q0 43 32 72.5t75 29.5q45 0 75.5 -30.5t30.5 -75.5q0 -47 -29.5 -75t-76.5 -28q-45 0 -76 28.5t-31 78.5zM590 1137q0 43 31.5 72.5t74.5 29.5q45 0 76 -30.5t31 -75.5q0 -47 -30 -75t-77 -28q-45 0 -75.5 28.5t-30.5 78.5z" />
<glyph unicode="&#xf8;" horiz-adv-x="1038" d="M0 88l131 125q-76 111 -76 244q0 195 135.5 334t327.5 139q137 0 260 -78l133 119l76 -80l-117 -127q55 -70 83 -147.5t28 -165.5q0 -193 -133 -330t-324 -137q-94 0 -180 34.5t-139 104.5l-127 -125zM211 451q0 -31 7 -58.5t22 -66.5l436 415q-72 39 -152 39 q-41 0 -69.5 -7t-67.5 -28q-176 -88 -176 -294zM311 223q37 -43 94.5 -64.5t120.5 -21.5q127 0 219.5 96.5t92.5 223.5q0 57 -17.5 116.5t-52.5 98.5z" />
<glyph unicode="&#xf9;" horiz-adv-x="987" d="M88 299v614h162v-557q0 -94 74.5 -160.5t169.5 -66.5q102 0 172.5 70.5t70.5 173.5v540h162v-614q0 -147 -131 -242q-116 -84 -270 -84q-156 0 -275 82q-135 94 -135 244zM250 1311h213l160 -289h-123z" />
<glyph unicode="&#xfa;" horiz-adv-x="987" d="M88 299v614h162v-557q0 -94 74.5 -160.5t169.5 -66.5q102 0 172.5 70.5t70.5 173.5v540h162v-614q0 -147 -131 -242q-116 -84 -270 -84q-156 0 -275 82q-135 94 -135 244zM395 1024l156 289h215l-250 -289h-121z" />
<glyph unicode="&#xfb;" horiz-adv-x="987" d="M88 299v614h162v-557q0 -94 74.5 -160.5t169.5 -66.5q102 0 172.5 70.5t70.5 173.5v540h162v-614q0 -147 -131 -242q-116 -84 -270 -84q-156 0 -275 82q-135 94 -135 244zM180 1024l215 289h201l213 -289h-166l-147 227l-146 -227h-170z" />
<glyph unicode="&#xfc;" horiz-adv-x="987" d="M88 299v614h162v-557q0 -94 74.5 -160.5t169.5 -66.5q102 0 172.5 70.5t70.5 173.5v540h162v-614q0 -147 -131 -242q-116 -84 -270 -84q-156 0 -275 82q-135 94 -135 244zM221 1137q0 43 32 72.5t75 29.5q45 0 75.5 -30.5t30.5 -75.5q0 -47 -29.5 -75t-78.5 -28 q-45 0 -75 30t-30 77zM582 1137q0 43 31.5 72.5t74.5 29.5t75 -31.5t32 -74.5q0 -47 -30 -75t-77 -28q-45 0 -75.5 28.5t-30.5 78.5z" />
<glyph unicode="&#xfd;" horiz-adv-x="0" />
<glyph unicode="&#xff;" horiz-adv-x="825" d="M-29 913h174l234 -589q6 -18 10 -25q10 -16 23 -16q8 0 19 21.5t13 25.5l234 583h176l-588 -1458h-174l201 490q4 12 10 35.5t6 35.5q0 14 -3 28.5t-19 59.5zM125 1137q0 43 31.5 72.5t74.5 29.5q45 0 76 -30.5t31 -75.5q0 -47 -30 -75t-77 -28q-45 0 -75.5 28.5 t-30.5 78.5zM485 1137q0 43 31 73.5t76 30.5t75.5 -30.5t30.5 -77.5t-29.5 -75t-76.5 -28q-45 0 -76 28.5t-31 78.5z" />
<glyph unicode="&#x152;" horiz-adv-x="2140" d="M74 733q0 313 214 543.5t525 230.5q168 0 317.5 -78t247.5 -215v261h674v-166h-401h-35q-31 0 -40 -11.5t-9 -62.5v-256q0 -41 16 -53.5t59 -12.5h381v-192h-391q-43 0 -54 -18.5t-11 -65.5v-379q0 -49 6 -57q10 -12 57 -13l436 2v-190h-690v246q-96 -129 -250.5 -205 t-316.5 -76q-309 0 -522 229.5t-213 538.5zM246 735q0 -37 2 -55q6 -23 6 -33q37 -221 188.5 -367.5t370.5 -146.5q242 0 405.5 179.5t163.5 422.5q0 244 -159 420q-166 182 -410 182q-184 0 -334 -114q-94 -72 -150.5 -174.5t-74.5 -227.5q-4 -23 -6 -42t-2 -44z" />
<glyph unicode="&#x153;" horiz-adv-x="1820" d="M59 459q0 193 135.5 332t327.5 139q123 0 228 -59.5t168 -165.5q47 113 151.5 172t235.5 59q195 0 333 -148.5t138 -345.5l-2 -49h-664q-57 0 -77.5 -13t-20.5 -44q0 -41 55 -96q43 -43 92 -72q37 -23 72 -34t74 -11q47 0 84.5 15.5t148.5 82.5l92 -110 q-63 -63 -147 -99.5t-170 -36.5q-131 0 -238.5 61.5t-152.5 178.5q-66 -109 -169.5 -171t-228.5 -62q-195 0 -330 141t-135 336zM209 457q0 -133 92 -227.5t227 -94.5q131 0 220.5 95.5t89.5 226.5q0 135 -89.5 228t-222.5 93t-225 -94t-92 -227zM1034 573q0 -25 21 -34 l55 -2h395h29q23 0 43 4t20 34q0 18 -19 49t-38 56q-43 53 -101.5 85t-123.5 32q-66 0 -129.5 -33t-102.5 -86q-20 -29 -30 -49q-18 -35 -19 -56z" />
<glyph unicode="&#x178;" horiz-adv-x="999" d="M-45 1475h217l268 -553q8 -18 26.5 -40t31.5 -22q8 0 23.5 18.5t33.5 49.5l289 547l200 -2l-331 -609q-33 -59 -74 -155q-51 -121 -51 -160v-549h-205v541q0 51 -36 144t-68 157zM213 1681q0 43 31.5 73t74.5 30q45 0 76 -31t31 -76q0 -47 -30 -74.5t-77 -27.5 q-45 0 -75.5 28.5t-30.5 77.5zM573 1681q0 43 31 74t76 31t75.5 -31t30.5 -78t-29.5 -74.5t-76.5 -27.5q-45 0 -76 28.5t-31 77.5z" />
<glyph unicode="&#x2c6;" horiz-adv-x="632" d="M2 1024l215 289h201l213 -289h-166l-148 227l-145 -227h-170z" />
<glyph unicode="&#x2dc;" horiz-adv-x="614" d="M2 1053l4 39q18 76 49 110q39 45 111 45q47 0 117 -24q150 -53 176 -54q33 0 49 21q8 10 16 31l2 18h86q-10 -84 -43 -131q-41 -59 -116 -59q-53 0 -150.5 37.5t-132.5 37.5q-31 0 -56.5 -19t-25.5 -50z" />
<glyph unicode="&#x2000;" horiz-adv-x="965" />
<glyph unicode="&#x2001;" horiz-adv-x="1931" />
<glyph unicode="&#x2002;" horiz-adv-x="965" />
<glyph unicode="&#x2003;" horiz-adv-x="1931" />
<glyph unicode="&#x2004;" horiz-adv-x="643" />
<glyph unicode="&#x2005;" horiz-adv-x="482" />
<glyph unicode="&#x2006;" horiz-adv-x="321" />
<glyph unicode="&#x2007;" horiz-adv-x="321" />
<glyph unicode="&#x2008;" horiz-adv-x="241" />
<glyph unicode="&#x2009;" horiz-adv-x="386" />
<glyph unicode="&#x200a;" horiz-adv-x="107" />
<glyph unicode="&#x2010;" horiz-adv-x="591" d="M59 461v160h473v-160h-473z" />
<glyph unicode="&#x2011;" horiz-adv-x="591" d="M59 461v160h473v-160h-473z" />
<glyph unicode="&#x2012;" horiz-adv-x="591" d="M59 461v160h473v-160h-473z" />
<glyph unicode="&#x2013;" horiz-adv-x="1126" d="M47 676v123h1032v-123h-1032z" />
<glyph unicode="&#x2014;" horiz-adv-x="1224" d="M59 461v160h1106v-160h-1106z" />
<glyph unicode="&#x2018;" horiz-adv-x="376" d="M59 1194q0 33 19 61l125 220h96q-29 -39 -49 -68q-43 -59 -43 -70q43 -35 76.5 -66.5t33.5 -76.5q0 -53 -36.5 -92t-92.5 -39q-53 0 -91 38t-38 93z" />
<glyph unicode="&#x2019;" horiz-adv-x="376" d="M59 1350q0 55 37 98t92 43q53 0 91 -44t38 -99q4 -35 -16 -64l-127 -221h-94q41 59 65.5 96t24.5 41q0 10 -55.5 51t-55.5 99z" />
<glyph unicode="&#x201a;" horiz-adv-x="376" d="M59 109q0 55 37 98t92 43q53 0 91 -44.5t38 -99.5q2 -33 -16 -65l-127 -219h-94q41 59 65.5 96t24.5 41q0 10 -55.5 51t-55.5 99z" />
<glyph unicode="&#x201e;" horiz-adv-x="552" d="M57 -195q43 25 64.5 73t21.5 104v18h-65v242h158v-238q0 -102 -43 -178t-136 -107v86zM317 -195q43 25 64.5 73t21.5 104v18h-65v242h158v-238q0 -102 -43 -178t-136 -107v86z" />
<glyph unicode="&#x202f;" horiz-adv-x="386" />
<glyph unicode="&#x2039;" horiz-adv-x="618" d="M59 391v137l392 416l108 -90l-366 -393l366 -393l-108 -91z" />
<glyph unicode="&#x203a;" horiz-adv-x="618" d="M59 68l365 393l-365 393l109 90l391 -416v-137l-391 -414z" />
<glyph unicode="&#x205f;" horiz-adv-x="482" />
<glyph unicode="&#xe000;" horiz-adv-x="911" d="M0 0v911h911v-911h-911z" />
</font>
</defs>
</svg>
